<svg xmlns="http://www.w3.org/2000/svg" width="365" height="217" viewBox="0 0 365 217"><defs><style>.a,.c,.g,.k{fill:#fff;}.a,.b{stroke:#65985f;stroke-width:2px;}.b,.e{fill:#65985f;}.c,.d{font-size:10px;font-family:Mplus1p-Medium, "Mplus 1p";font-weight:500;}.d,.f,.h,.l{fill:#6a6a6a;}.h,.l{font-size:30px;}.h{font-family:Mplus1p-ExtraBold, "Mplus 1p";font-weight:800;letter-spacing:-0.025em;}.i,.j,.k,.l{font-family:Mplus1p-Bold, "Mplus 1p";font-weight:700;}.j{font-size:26px;}.k{font-size:16px;letter-spacing:0.05em;}.m{stroke:none;}.n{fill:none;}</style></defs><g transform="translate(-776 -1001)"><g transform="translate(200)"><g class="a" transform="translate(707 1056)"><rect class="m" width="230" height="160" rx="10"/><rect class="n" x="1" y="1" width="228" height="158" rx="9"/></g><g class="b" transform="translate(877 1126)"><rect class="m" width="50" height="80" rx="25"/><rect class="n" x="1" y="1" width="48" height="78" rx="24"/></g><text class="c" transform="translate(902 1164)"><tspan x="-15" y="0">ゲーム</tspan><tspan x="-20" y="12">ロジック</tspan></text><text class="d" transform="translate(902 1108)"><tspan x="-16.595" y="0">dotnet</tspan><tspan x="-10.53" y="12">core</tspan></text><g transform="translate(-4 -2)"><path class="e" d="M-101-1724a49.217,49.217,0,0,1-17.678-2.929c-4.722-1.889-7.323-4.4-7.323-7.071v-15.244c1.522,2.046,4.794,3.889,9.214,5.19A56.968,56.968,0,0,0-101-1742a56.968,56.968,0,0,0,15.786-2.053c4.419-1.3,7.692-3.144,9.214-5.19V-1734c0,2.671-2.6,5.182-7.323,7.071A49.217,49.217,0,0,1-101-1724Z" transform="translate(927 2932)"/><path class="e" d="M-101-1724a49.217,49.217,0,0,1-17.678-2.929c-4.722-1.889-7.323-4.4-7.323-7.071v-15.244c1.522,2.046,4.794,3.889,9.214,5.19A56.968,56.968,0,0,0-101-1742a56.968,56.968,0,0,0,15.786-2.053c4.419-1.3,7.692-3.144,9.214-5.19V-1734c0,2.671-2.6,5.182-7.323,7.071A49.217,49.217,0,0,1-101-1724Z" transform="translate(927 2912)"/><path class="e" d="M-101-1724a49.217,49.217,0,0,1-17.678-2.929c-4.722-1.889-7.323-4.4-7.323-7.071v-15.244c1.522,2.046,4.794,3.889,9.214,5.19A56.968,56.968,0,0,0-101-1742a56.968,56.968,0,0,0,15.786-2.053c4.419-1.3,7.692-3.144,9.214-5.19V-1734c0,2.671-2.6,5.182-7.323,7.071A49.217,49.217,0,0,1-101-1724Z" transform="translate(927 2892)"/><ellipse class="e" cx="25" cy="10" rx="25" ry="10" transform="translate(801 1128)"/></g><text class="c" transform="translate(822 1159)"><tspan x="-16.125" y="0">Disque</tspan></text><text class="d" transform="translate(822 1114)"><tspan x="-18.865" y="0">Storage</tspan></text><g class="b" transform="translate(717 1126)"><rect class="m" width="50" height="80" rx="5"/><rect class="n" x="1" y="1" width="48" height="78" rx="4"/></g><text class="c" transform="translate(742 1158)"><tspan x="-13.805" y="0">Nginx</tspan><tspan x="-3.67" y="12">+</tspan><tspan x="-14.525" y="24">Luajit</tspan></text><text class="d" transform="translate(742 1108)"><tspan x="-10.31" y="0">Web</tspan><tspan x="-16.52" y="12">Socket</tspan></text><g transform="translate(-120 132.459)"><g transform="translate(914.015 1046.745) rotate(180)"><path class="f" d="M14,11.464V9.205H1a1,1,0,0,1-1-1v-4a1,1,0,0,1,1-1H14V.946A1,1,0,0,1,15.5.082l9.015,5.26a1,1,0,0,1,0,1.727L15.5,12.327a.991.991,0,0,1-.5.138A1,1,0,0,1,14,11.464Z" transform="translate(0 0)"/></g><g transform="translate(889 1021.336)"><path class="f" d="M14,11.464V9.205H1a1,1,0,0,1-1-1v-4a1,1,0,0,1,1-1H14V.946A1,1,0,0,1,15.5.082l9.015,5.26a1,1,0,0,1,0,1.727L15.5,12.327a.991.991,0,0,1-.5.138A1,1,0,0,1,14,11.464Z" transform="translate(0 0)"/><path class="g" d="M14.047,6.652h-14v-4h14v-3l9,5-9,5Z" transform="translate(0.952 1.553)"/></g></g><g transform="translate(-39 132.459)"><g transform="translate(914.015 1046.745) rotate(180)"><path class="f" d="M14,11.464V9.205H1a1,1,0,0,1-1-1v-4a1,1,0,0,1,1-1H14V.946A1,1,0,0,1,15.5.082l9.015,5.26a1,1,0,0,1,0,1.727L15.5,12.327a.991.991,0,0,1-.5.138A1,1,0,0,1,14,11.464Z" transform="translate(0 0)"/></g><g transform="translate(889 1021.336)"><path class="f" d="M14,11.464V9.205H1a1,1,0,0,1-1-1v-4a1,1,0,0,1,1-1H14V.946A1,1,0,0,1,15.5.082l9.015,5.26a1,1,0,0,1,0,1.727L15.5,12.327a.991.991,0,0,1-.5.138A1,1,0,0,1,14,11.464Z" transform="translate(0 0)"/><path class="g" d="M14.047,6.652h-14v-4h14v-3l9,5-9,5Z" transform="translate(0.952 1.553)"/></g></g><text class="h" transform="translate(826 1090)"><tspan x="-41.788" y="0">A</tspan><tspan class="i" y="0"> </tspan><tspan class="j" y="0">vs</tspan><tspan class="i" y="0"> </tspan><tspan y="0">B</tspan></text></g><g transform="translate(135)"><rect class="e" width="230" height="30" rx="15" transform="translate(776 1001)"/><text class="k" transform="translate(891 1022)"><tspan x="-30.28" y="0">majiXA</tspan></text></g><g transform="translate(0 90)"><rect class="f" width="40" height="70" rx="5" transform="translate(806 1058)"/><rect class="g" width="12" height="4" rx="2" transform="translate(820 1121)"/><rect class="g" width="34" height="57" rx="3" transform="translate(809 1061)"/><text class="l" transform="translate(826 1101)"><tspan x="-9.3" y="0">B</tspan></text></g><rect class="f" width="40" height="70" rx="5" transform="translate(806 1058)"/><rect class="g" width="12" height="4" rx="2" transform="translate(820 1121)"/><rect class="g" width="34" height="57" rx="3" transform="translate(809 1061)"/><text class="l" transform="translate(826 1101)"><tspan x="-10.725" y="0">A</tspan></text><text class="d" transform="translate(826 1042)"><tspan x="-34.09" y="0">(クライアント)</tspan></text><rect class="f" width="100" height="30" rx="15" transform="translate(776 1001)"/><text class="k" transform="translate(826 1022)"><tspan x="-24.8" y="0">スマホ</tspan></text><g transform="translate(-39 125)"><g transform="translate(1831.015 2105.597) rotate(180)"><path class="g" d="M27,32.99V27.5H-2a1,1,0,0,1-1-1v-12a1,1,0,0,1,1-1H27V8.01a2,2,0,0,1,3.02-1.721L51.1,18.779a2,2,0,0,1,0,3.442L30.02,34.71A1.982,1.982,0,0,1,29,34.993,2,2,0,0,1,27,32.99Z" transform="translate(891 1015.5)"/><path class="f" d="M28,32.759V26.5H-1a1,1,0,0,1-1-1v-10a1,1,0,0,1,1-1H28V8.241a1,1,0,0,1,1.5-.864L50.519,19.636a1,1,0,0,1,0,1.728L29.5,33.623a1,1,0,0,1-1.5-.864Z" transform="translate(891 1015.5)"/></g><g transform="translate(0 9.597)"><path class="f" d="M28,32.759V26.5H-1a1,1,0,0,1-1-1v-10a1,1,0,0,1,1-1H28V8.241a1,1,0,0,1,1.5-.864L50.519,19.636a1,1,0,0,1,0,1.728L29.5,33.623a1,1,0,0,1-1.5-.864Z" transform="translate(891 1015.5)"/><path class="g" d="M30,24.5H0v-8H30v-6l18,10-18,10Z" transform="translate(891 1015.5)"/></g></g><g transform="translate(-39 35)"><g transform="translate(1831.015 2105.597) rotate(180)"><path class="g" d="M27,32.99V27.5H-2a1,1,0,0,1-1-1v-12a1,1,0,0,1,1-1H27V8.01a2,2,0,0,1,3.02-1.721L51.1,18.779a2,2,0,0,1,0,3.442L30.02,34.71A1.982,1.982,0,0,1,29,34.993,2,2,0,0,1,27,32.99Z" transform="translate(891 1015.5)"/><path class="f" d="M28,32.759V26.5H-1a1,1,0,0,1-1-1v-10a1,1,0,0,1,1-1H28V8.241a1,1,0,0,1,1.5-.864L50.519,19.636a1,1,0,0,1,0,1.728L29.5,33.623a1,1,0,0,1-1.5-.864Z" transform="translate(891 1015.5)"/></g><g transform="translate(0 9.597)"><path class="f" d="M28,32.759V26.5H-1a1,1,0,0,1-1-1v-10a1,1,0,0,1,1-1H28V8.241a1,1,0,0,1,1.5-.864L50.519,19.636a1,1,0,0,1,0,1.728L29.5,33.623a1,1,0,0,1-1.5-.864Z" transform="translate(891 1015.5)"/><path class="g" d="M30,24.5H0v-8H30v-6l18,10-18,10Z" transform="translate(891 1015.5)"/></g></g></g></svg>